<svg xmlns="http://www.w3.org/2000/svg" viewBox="0 0 477.23 413.29"><defs><style>.cls-1{fill:#009444;}.cls-2{fill:#35b55c;}.cls-3{fill:#07793a;}</style></defs><title>Asset 1</title><g id="Layer_2" data-name="Layer 2"><g id="Layer_1-2" data-name="Layer 1"><polygon class="cls-1" points="433.89 363.25 404.99 363.25 238.61 75.06 224.16 50.05 43.34 363.25 28.89 388.27 14.44 413.29 0 388.27 14.44 363.25 209.71 25.03 209.71 25.02 224.16 0 238.61 25.02 253.05 50.05 433.89 363.25"/><polygon class="cls-2" points="477.23 388.27 57.77 388.27 72.22 363.25 433.89 363.25 253.05 50.05 238.61 25.02 224.16 0 253.05 0 267.5 25.02 462.78 363.25 477.23 388.27"/><polygon class="cls-3" points="477.23 388.27 462.78 413.29 14.44 413.29 28.89 388.27 43.34 363.25 224.16 50.05 238.61 75.06 72.22 363.25 57.77 388.27 477.23 388.27"/></g></g></svg>